<?xml version="1.0" encoding="UTF-8"?>
<!DOCTYPE svg PUBLIC "-//W3C//DTD SVG 1.1//EN" "http://www.w3.org/Graphics/SVG/1.1/DTD/svg11.dtd">
<svg xmlns="http://www.w3.org/2000/svg" version="1.1" width="500px" height="500px" style="shape-rendering:geometricPrecision; text-rendering:geometricPrecision; image-rendering:optimizeQuality; fill-rule:evenodd; clip-rule:evenodd" xmlns:xlink="http://www.w3.org/1999/xlink">
<g><path style="opacity:0.971" fill="#c6b51f" d="M 245.5,8.5 C 251.974,8.11856 257.974,9.61856 263.5,13C 338,87.5 412.5,162 487,236.5C 493,245.833 493,255.167 487,264.5C 412.5,339 338,413.5 263.5,488C 253.404,493.173 243.737,492.506 234.5,486C 161,412.5 87.5,339 14,265.5C 7.12477,255.682 6.79144,245.682 13,235.5C 87.1667,161.333 161.333,87.1667 235.5,13C 238.815,11.1702 242.149,9.6702 245.5,8.5 Z M 246.5,19.5 C 250.966,19.1562 254.966,20.3229 258.5,23C 300.833,65.3333 343.167,107.667 385.5,150C 364.159,150.833 342.826,150.666 321.5,149.5C 310.753,130.336 299.753,111.336 288.5,92.5C 262.833,91.1667 237.167,91.1667 211.5,92.5C 199.167,113.833 186.833,135.167 174.5,156.5C 186.833,177.833 199.167,199.167 211.5,220.5C 237.167,221.833 262.833,221.833 288.5,220.5C 299.96,201.082 311.293,181.582 322.5,162C 347.5,161.333 372.5,161.333 397.5,162C 424,188.5 450.5,215 477,241.5C 481.667,247.5 481.667,253.5 477,259.5C 404.167,332.333 331.333,405.167 258.5,478C 253.686,480.893 248.686,481.226 243.5,479C 200.167,435.667 156.833,392.333 113.5,349C 134.841,348.167 156.174,348.334 177.5,349.5C 188.833,368.833 200.167,388.167 211.5,407.5C 237.16,408.666 262.827,408.833 288.5,408C 301.093,386.814 313.426,365.481 325.5,344C 313.426,322.519 301.093,301.186 288.5,280C 262.833,279.333 237.167,279.333 211.5,280C 200.419,299.498 189.086,318.831 177.5,338C 152.5,338.667 127.5,338.667 102.5,338C 75.3333,310.833 48.1667,283.667 21,256.5C 18.6,250.764 19.2667,245.431 23,240.5C 95.5,168 168,95.5 240.5,23C 242.432,21.5415 244.432,20.3748 246.5,19.5 Z M 218.5,102.5 C 239.503,102.333 260.503,102.5 281.5,103C 291.849,120.677 302.183,138.343 312.5,156C 302.426,174.147 292.093,192.147 281.5,210C 260.5,210.667 239.5,210.667 218.5,210C 208.04,192.248 197.707,174.415 187.5,156.5C 197.845,138.473 208.178,120.473 218.5,102.5 Z M 218.5,289.5 C 239.503,289.333 260.503,289.5 281.5,290C 292.093,307.853 302.426,325.853 312.5,344C 302.426,362.147 292.093,380.147 281.5,398C 260.492,398.833 239.492,398.666 218.5,397.5C 207.781,379.896 197.448,362.063 187.5,344C 197.724,325.713 208.057,307.547 218.5,289.5 Z"/></g>
<g><path style="opacity:0.994" fill="#c6b51f" d="M 106.5,184.5 C 131.836,184.333 157.169,184.5 182.5,185C 193.833,204.333 205.167,223.667 216.5,243C 238.5,243.667 260.5,243.667 282.5,243C 293.878,224.413 304.878,205.58 315.5,186.5C 341.16,185.334 366.827,185.167 392.5,186C 404.541,206.583 416.707,227.083 429,247.5C 429.667,249.167 429.667,250.833 429,252.5C 416.707,272.917 404.541,293.417 392.5,314C 366.827,314.833 341.16,314.666 315.5,313.5C 304.366,293.87 293.033,274.37 281.5,255C 260.167,254.333 238.833,254.333 217.5,255C 205.833,274.667 194.167,294.333 182.5,314C 157.167,314.667 131.833,314.667 106.5,314C 93.7713,292.707 81.438,271.207 69.5,249.5C 81.576,227.681 93.9093,206.014 106.5,184.5 Z"/></g>
</svg>
