<?xml version="1.0" encoding="utf-8"?>
<svg version="1.1" id="Layer_1" xmlns="http://www.w3.org/2000/svg" xmlns:xlink="http://www.w3.org/1999/xlink" x="0px" y="0px"
	 viewBox="0 0 1461.108 1662.179" enable-background="new 0 0 1461.108 1662.179" xml:space="preserve">
<g>
	<g>
		<g>
			<g>
				
					<line fill="none" stroke="#000000" stroke-width="4" stroke-miterlimit="10" x1="115.099" y1="475.756" x2="120.295" y2="472.756"/>
				
					<line fill="none" stroke="#000000" stroke-width="4" stroke-miterlimit="10" stroke-dasharray="11.8418,11.8418" x1="130.55" y1="466.835" x2="720.23" y2="126.383"/>
				
					<line fill="none" stroke="#000000" stroke-width="4" stroke-miterlimit="10" x1="725.358" y1="123.423" x2="730.554" y2="120.423"/>
			</g>
		</g>
		<g>
			<g>
				
					<line fill="none" stroke="#000000" stroke-width="4" stroke-miterlimit="10" x1="115.099" y1="475.756" x2="121.099" y2="475.756"/>
				
					<line fill="none" stroke="#000000" stroke-width="4" stroke-miterlimit="10" stroke-dasharray="12.0684,12.0684" x1="133.167" y1="475.756" x2="1333.975" y2="475.756"/>
				
					<line fill="none" stroke="#000000" stroke-width="4" stroke-miterlimit="10" x1="1340.009" y1="475.756" x2="1346.009" y2="475.756"/>
			</g>
		</g>
		<g>
			<g>
				
					<line fill="none" stroke="#000000" stroke-width="4" stroke-miterlimit="10" x1="115.099" y1="475.756" x2="120.295" y2="478.756"/>
				
					<line fill="none" stroke="#000000" stroke-width="4" stroke-miterlimit="10" stroke-dasharray="12.0456,12.0456" x1="130.726" y1="484.779" x2="1335.597" y2="1180.411"/>
				
					<line fill="none" stroke="#000000" stroke-width="4" stroke-miterlimit="10" x1="1340.813" y1="1183.423" x2="1346.009" y2="1186.423"/>
			</g>
		</g>
		<g>
			<g>
				
					<line fill="none" stroke="#000000" stroke-width="4" stroke-miterlimit="10" x1="115.099" y1="475.756" x2="118.099" y2="480.952"/>
				
					<line fill="none" stroke="#000000" stroke-width="4" stroke-miterlimit="10" stroke-dasharray="12.0684,12.0684" x1="124.133" y1="491.404" x2="724.537" y2="1531.334"/>
				
					<line fill="none" stroke="#000000" stroke-width="4" stroke-miterlimit="10" x1="727.554" y1="1536.56" x2="730.554" y2="1541.756"/>
			</g>
		</g>
		<g>
			<g>
				
					<line fill="none" stroke="#000000" stroke-width="4" stroke-miterlimit="10" x1="115.099" y1="475.756" x2="115.099" y2="481.756"/>
				
					<line fill="none" stroke="#000000" stroke-width="4" stroke-miterlimit="10" stroke-dasharray="11.8418,11.8418" x1="115.099" y1="493.598" x2="115.099" y2="1174.502"/>
				
					<line fill="none" stroke="#000000" stroke-width="4" stroke-miterlimit="10" x1="115.099" y1="1180.423" x2="115.099" y2="1186.423"/>
			</g>
		</g>
		<g>
			<g>
				
					<line fill="none" stroke="#000000" stroke-width="4" stroke-miterlimit="10" x1="730.554" y1="120.423" x2="735.75" y2="123.423"/>
				
					<line fill="none" stroke="#000000" stroke-width="4" stroke-miterlimit="10" stroke-dasharray="11.8418,11.8418" x1="746.005" y1="129.344" x2="1335.686" y2="469.796"/>
				
					<line fill="none" stroke="#000000" stroke-width="4" stroke-miterlimit="10" x1="1340.813" y1="472.756" x2="1346.009" y2="475.756"/>
			</g>
		</g>
		<g>
			<g>
				
					<line fill="none" stroke="#000000" stroke-width="4" stroke-miterlimit="10" x1="730.554" y1="120.423" x2="733.554" y2="125.619"/>
				
					<line fill="none" stroke="#000000" stroke-width="4" stroke-miterlimit="10" stroke-dasharray="12.0684,12.0684" x1="739.588" y1="136.07" x2="1339.992" y2="1176.001"/>
				
					<line fill="none" stroke="#000000" stroke-width="4" stroke-miterlimit="10" x1="1343.009" y1="1181.227" x2="1346.009" y2="1186.423"/>
			</g>
		</g>
		<g>
			<g>
				
					<line fill="none" stroke="#000000" stroke-width="4" stroke-miterlimit="10" x1="730.554" y1="120.423" x2="730.554" y2="126.423"/>
				
					<line fill="none" stroke="#000000" stroke-width="4" stroke-miterlimit="10" stroke-dasharray="12.0456,12.0456" x1="730.554" y1="138.468" x2="730.554" y2="1529.733"/>
				
					<line fill="none" stroke="#000000" stroke-width="4" stroke-miterlimit="10" x1="730.554" y1="1535.756" x2="730.554" y2="1541.756"/>
			</g>
		</g>
		<g>
			<g>
				
					<line fill="none" stroke="#000000" stroke-width="4" stroke-miterlimit="10" x1="730.554" y1="120.423" x2="727.554" y2="125.619"/>
				
					<line fill="none" stroke="#000000" stroke-width="4" stroke-miterlimit="10" stroke-dasharray="12.0684,12.0684" x1="721.52" y1="136.07" x2="121.116" y2="1176.001"/>
				
					<line fill="none" stroke="#000000" stroke-width="4" stroke-miterlimit="10" x1="118.099" y1="1181.227" x2="115.099" y2="1186.423"/>
			</g>
		</g>
		<g>
			<g>
				
					<line fill="none" stroke="#000000" stroke-width="4" stroke-miterlimit="10" x1="1346.009" y1="475.756" x2="1346.009" y2="481.756"/>
				
					<line fill="none" stroke="#000000" stroke-width="4" stroke-miterlimit="10" stroke-dasharray="11.8418,11.8418" x1="1346.009" y1="493.598" x2="1346.009" y2="1174.502"/>
				
					<line fill="none" stroke="#000000" stroke-width="4" stroke-miterlimit="10" x1="1346.009" y1="1180.423" x2="1346.009" y2="1186.423"/>
			</g>
		</g>
		<g>
			<g>
				
					<line fill="none" stroke="#000000" stroke-width="4" stroke-miterlimit="10" x1="1346.009" y1="475.756" x2="1343.009" y2="480.952"/>
				
					<line fill="none" stroke="#000000" stroke-width="4" stroke-miterlimit="10" stroke-dasharray="12.0684,12.0684" x1="1336.975" y1="491.404" x2="736.571" y2="1531.334"/>
				
					<line fill="none" stroke="#000000" stroke-width="4" stroke-miterlimit="10" x1="733.554" y1="1536.56" x2="730.554" y2="1541.756"/>
			</g>
		</g>
		<g>
			<g>
				
					<line fill="none" stroke="#000000" stroke-width="4" stroke-miterlimit="10" x1="1346.009" y1="475.756" x2="1340.813" y2="478.756"/>
				
					<line fill="none" stroke="#000000" stroke-width="4" stroke-miterlimit="10" stroke-dasharray="12.0456,12.0456" x1="1330.381" y1="484.779" x2="125.511" y2="1180.411"/>
				
					<line fill="none" stroke="#000000" stroke-width="4" stroke-miterlimit="10" x1="120.295" y1="1183.423" x2="115.099" y2="1186.423"/>
			</g>
		</g>
		<g>
			<g>
				
					<line fill="none" stroke="#000000" stroke-width="4" stroke-miterlimit="10" x1="1346.009" y1="1186.423" x2="1340.813" y2="1189.423"/>
				
					<line fill="none" stroke="#000000" stroke-width="4" stroke-miterlimit="10" stroke-dasharray="11.8418,11.8418" x1="1330.558" y1="1195.344" x2="740.878" y2="1535.796"/>
				
					<line fill="none" stroke="#000000" stroke-width="4" stroke-miterlimit="10" x1="735.75" y1="1538.756" x2="730.554" y2="1541.756"/>
			</g>
		</g>
		<g>
			<g>
				
					<line fill="none" stroke="#000000" stroke-width="4" stroke-miterlimit="10" x1="1346.009" y1="1186.423" x2="1340.009" y2="1186.423"/>
				
					<line fill="none" stroke="#000000" stroke-width="4" stroke-miterlimit="10" stroke-dasharray="12.0684,12.0684" x1="1327.941" y1="1186.423" x2="127.133" y2="1186.423"/>
				
					<line fill="none" stroke="#000000" stroke-width="4" stroke-miterlimit="10" x1="121.099" y1="1186.423" x2="115.099" y2="1186.423"/>
			</g>
		</g>
		<g>
			<g>
				
					<line fill="none" stroke="#000000" stroke-width="4" stroke-miterlimit="10" x1="730.554" y1="1541.756" x2="725.358" y2="1538.756"/>
				
					<line fill="none" stroke="#000000" stroke-width="4" stroke-miterlimit="10" stroke-dasharray="11.8418,11.8418" x1="715.102" y1="1532.835" x2="125.422" y2="1192.383"/>
				
					<line fill="none" stroke="#000000" stroke-width="4" stroke-miterlimit="10" x1="120.295" y1="1189.423" x2="115.099" y2="1186.423"/>
			</g>
		</g>
	</g>
	<g>
		<polygon fill="#E3E3E3" stroke="#D9D9D9" stroke-width="1.534" points="946.927,564.367 869.995,519.949 869.995,431.117 
			946.927,475.535 		"/>
		<polygon fill="#9A9A9A" stroke="#D9D9D9" stroke-width="1.534" points="1023.858,519.949 946.927,564.367 946.927,475.535 
			1023.858,431.117 		"/>
		<polygon fill="#777777" stroke="#D9D9D9" stroke-width="1.534" points="946.927,475.533 869.995,431.117 946.926,386.701 
			1023.858,431.117 		"/>
	</g>
	<g>
		<polygon fill="#E3E3E3" stroke="#D9D9D9" stroke-width="1.534" points="1138.41,920.143 1061.478,875.726 1061.478,786.893 
			1138.41,831.311 		"/>
		<polygon fill="#9A9A9A" stroke="#D9D9D9" stroke-width="1.534" points="1215.341,875.726 1138.41,920.143 1138.41,831.311 
			1215.341,786.893 		"/>
		<polygon fill="#777777" stroke="#D9D9D9" stroke-width="1.534" points="1138.41,831.309 1061.478,786.893 1138.409,742.477 
			1215.341,786.893 		"/>
	</g>
	<g>
		<polygon fill="#E3E3E3" stroke="#D9D9D9" stroke-width="1.534" points="730.555,920.144 653.623,875.726 653.623,786.894 
			730.555,831.312 		"/>
		<polygon fill="#9A9A9A" stroke="#D9D9D9" stroke-width="1.534" points="807.486,875.726 730.555,920.144 730.555,831.312 
			807.486,786.894 		"/>
		<polygon fill="#777777" stroke="#D9D9D9" stroke-width="1.534" points="730.555,831.31 653.623,786.894 730.554,742.478 
			807.486,786.894 		"/>
	</g>
	<g>
		<polygon fill="#E3E3E3" stroke="#D9D9D9" stroke-width="1.534" points="935.62,1275.918 858.688,1231.5 858.688,1142.668 
			935.62,1187.085 		"/>
		<polygon fill="#9A9A9A" stroke="#D9D9D9" stroke-width="1.534" points="1012.55,1231.5 935.62,1275.918 935.62,1187.085 
			1012.55,1142.668 		"/>
		<polygon fill="#777777" stroke="#D9D9D9" stroke-width="1.534" points="935.62,1187.084 858.688,1142.668 935.618,1098.251 
			1012.55,1142.668 		"/>
	</g>
	<g>
		<polygon fill="#E3E3E3" stroke="#D9D9D9" stroke-width="1.534" points="525.493,1275.034 448.561,1230.616 448.561,1141.784 
			525.493,1186.201 		"/>
		<polygon fill="#9A9A9A" stroke="#D9D9D9" stroke-width="1.534" points="602.423,1230.616 525.493,1275.034 525.493,1186.201 
			602.423,1141.784 		"/>
		<polygon fill="#777777" stroke="#D9D9D9" stroke-width="1.534" points="525.493,1186.2 448.561,1141.784 525.491,1097.367 
			602.423,1141.784 		"/>
	</g>
	<g>
		<polygon fill="#E3E3E3" stroke="#D9D9D9" stroke-width="1.534" points="1038.282,742.256 961.35,697.838 961.35,609.006 
			1038.282,653.424 		"/>
		<polygon fill="#9A9A9A" stroke="#D9D9D9" stroke-width="1.534" points="1115.213,697.838 1038.282,742.256 1038.282,653.424 
			1115.213,609.006 		"/>
		<polygon fill="#777777" stroke="#D9D9D9" stroke-width="1.534" points="1038.282,653.422 961.35,609.006 1038.281,564.589 
			1115.213,609.006 		"/>
	</g>
	<g>
		<polygon fill="#E3E3E3" stroke="#D9D9D9" stroke-width="1.534" points="730.556,1275.699 653.624,1231.281 653.624,1142.449 
			730.556,1186.866 		"/>
		<polygon fill="#9A9A9A" stroke="#D9D9D9" stroke-width="1.534" points="807.487,1231.281 730.556,1275.699 730.556,1186.866 
			807.487,1142.449 		"/>
		<polygon fill="#777777" stroke="#D9D9D9" stroke-width="1.534" points="730.556,1186.865 653.624,1142.449 730.555,1098.032 
			807.487,1142.449 		"/>
	</g>
	<g>
		<polygon fill="#E3E3E3" stroke="#D9D9D9" stroke-width="1.534" points="1038.283,1098.031 961.351,1053.613 961.351,964.78 
			1038.283,1009.198 		"/>
		<polygon fill="#9A9A9A" stroke="#D9D9D9" stroke-width="1.534" points="1115.214,1053.613 1038.283,1098.031 1038.283,1009.198 
			1115.214,964.78 		"/>
		<polygon fill="#777777" stroke="#D9D9D9" stroke-width="1.534" points="1038.283,1009.197 961.351,964.78 1038.282,920.364 
			1115.214,964.78 		"/>
	</g>
	<g>
		<polygon fill="#E3E3E3" stroke="#D9D9D9" stroke-width="1.534" points="730.555,564.589 653.623,520.172 653.623,431.339 
			730.555,475.757 		"/>
		<polygon fill="#9A9A9A" stroke="#D9D9D9" stroke-width="1.534" points="807.485,520.172 730.555,564.589 730.555,475.757 
			807.485,431.339 		"/>
		<polygon fill="#777777" stroke="#D9D9D9" stroke-width="1.534" points="730.555,475.755 653.623,431.339 730.553,386.923 
			807.485,431.339 		"/>
	</g>
	<g>
		<polygon fill="#E3E3E3" stroke="#D9D9D9" stroke-width="1.534" points="422.827,742.255 345.895,697.838 345.895,609.005 
			422.827,653.423 		"/>
		<polygon fill="#9A9A9A" stroke="#D9D9D9" stroke-width="1.534" points="499.757,697.838 422.827,742.255 422.827,653.423 
			499.757,609.005 		"/>
		<polygon fill="#777777" stroke="#D9D9D9" stroke-width="1.534" points="422.827,653.421 345.895,609.005 422.825,564.589 
			499.757,609.005 		"/>
	</g>
	<g>
		<polygon fill="#E3E3E3" stroke="#D9D9D9" stroke-width="1.534" points="518.568,564.589 441.636,520.172 441.636,431.339 
			518.568,475.757 		"/>
		<polygon fill="#9A9A9A" stroke="#D9D9D9" stroke-width="1.534" points="595.499,520.172 518.568,564.589 518.568,475.757 
			595.499,431.339 		"/>
		<polygon fill="#777777" stroke="#D9D9D9" stroke-width="1.534" points="518.568,475.755 441.636,431.339 518.567,386.923 
			595.499,431.339 		"/>
	</g>
	<g>
		<polygon fill="#E3E3E3" stroke="#D9D9D9" stroke-width="1.534" points="322.7,920.143 245.769,875.726 245.769,786.893 
			322.7,831.311 		"/>
		<polygon fill="#9A9A9A" stroke="#D9D9D9" stroke-width="1.534" points="399.631,875.726 322.7,920.143 322.7,831.311 
			399.631,786.893 		"/>
		<polygon fill="#777777" stroke="#D9D9D9" stroke-width="1.534" points="322.7,831.309 245.769,786.893 322.699,742.477 
			399.631,786.893 		"/>
	</g>
	<g>
		<polygon fill="#E3E3E3" stroke="#D9D9D9" stroke-width="1.534" points="422.828,1098.031 345.896,1053.614 345.896,964.781 
			422.828,1009.199 		"/>
		<polygon fill="#9A9A9A" stroke="#D9D9D9" stroke-width="1.534" points="499.758,1053.614 422.828,1098.031 422.828,1009.199 
			499.758,964.781 		"/>
		<polygon fill="#777777" stroke="#D9D9D9" stroke-width="1.534" points="422.828,1009.197 345.896,964.781 422.826,920.365 
			499.758,964.781 		"/>
	</g>
	<g>
		<polygon fill="#E3E3E3" stroke="#D9D9D9" stroke-width="1.534" points="730.555,209.035 653.623,164.617 653.623,75.784 
			730.555,120.202 		"/>
		<polygon fill="#9A9A9A" stroke="#D9D9D9" stroke-width="1.534" points="807.485,164.617 730.555,209.035 730.555,120.202 
			807.485,75.784 		"/>
		<polygon fill="#777777" stroke="#D9D9D9" stroke-width="1.534" points="730.555,120.201 653.623,75.784 730.553,31.368 
			807.485,75.784 		"/>
	</g>
	<g>
		<polygon fill="#E3E3E3" stroke="#D9D9D9" stroke-width="1.534" points="115.099,564.368 38.167,519.95 38.167,431.118 
			115.099,475.535 		"/>
		<polygon fill="#9A9A9A" stroke="#D9D9D9" stroke-width="1.534" points="192.03,519.95 115.099,564.368 115.099,475.535 
			192.03,431.118 		"/>
		<polygon fill="#777777" stroke="#D9D9D9" stroke-width="1.534" points="115.099,475.534 38.167,431.118 115.098,386.701 
			192.03,431.118 		"/>
	</g>
	<g>
		<polygon fill="#E3E3E3" stroke="#D9D9D9" stroke-width="1.534" points="1346.01,564.368 1269.078,519.95 1269.078,431.118 
			1346.01,475.535 		"/>
		<polygon fill="#9A9A9A" stroke="#D9D9D9" stroke-width="1.534" points="1422.941,519.95 1346.01,564.368 1346.01,475.535 
			1422.941,431.118 		"/>
		<polygon fill="#777777" stroke="#D9D9D9" stroke-width="1.534" points="1346.01,475.534 1269.078,431.118 1346.009,386.701 
			1422.941,431.118 		"/>
	</g>
	<g>
		<polygon fill="#E3E3E3" stroke="#D9D9D9" stroke-width="1.534" points="1346.01,1275.035 1269.078,1230.617 1269.078,1141.784 
			1346.01,1186.202 		"/>
		<polygon fill="#9A9A9A" stroke="#D9D9D9" stroke-width="1.534" points="1422.941,1230.617 1346.01,1275.035 1346.01,1186.202 
			1422.941,1141.784 		"/>
		<polygon fill="#777777" stroke="#D9D9D9" stroke-width="1.534" points="1346.01,1186.201 1269.078,1141.784 1346.009,1097.368 
			1422.941,1141.784 		"/>
	</g>
	<g>
		<polygon fill="#E3E3E3" stroke="#D9D9D9" stroke-width="1.534" points="730.555,1630.368 653.623,1585.95 653.623,1497.118 
			730.555,1541.535 		"/>
		<polygon fill="#9A9A9A" stroke="#D9D9D9" stroke-width="1.534" points="807.485,1585.95 730.555,1630.368 730.555,1541.535 
			807.485,1497.118 		"/>
		<polygon fill="#777777" stroke="#D9D9D9" stroke-width="1.534" points="730.555,1541.534 653.623,1497.118 730.553,1452.701 
			807.485,1497.118 		"/>
	</g>
	<g>
		<polygon fill="#E3E3E3" stroke="#D9D9D9" stroke-width="1.534" points="115.099,1275.035 38.167,1230.617 38.167,1141.784 
			115.099,1186.202 		"/>
		<polygon fill="#9A9A9A" stroke="#D9D9D9" stroke-width="1.534" points="192.03,1230.617 115.099,1275.035 115.099,1186.202 
			192.03,1141.784 		"/>
		<polygon fill="#777777" stroke="#D9D9D9" stroke-width="1.534" points="115.099,1186.201 38.167,1141.784 115.098,1097.368 
			192.03,1141.784 		"/>
	</g>
</g>
</svg>
