<svg width="93" height="93" viewBox="0 0 93 93" fill="none" xmlns="http://www.w3.org/2000/svg">
<circle cx="46.5" cy="46.5" r="46.5" fill="url(#paint0_linear_216_16)"/>
<path d="M43.8667 64.2998C43.5241 58.8704 41.5281 53.7695 38.0943 49.5494C36.9098 48.0937 34.7696 47.7854 33.2226 48.8475C31.7768 49.8401 31.2469 51.7224 31.9622 53.3232L33.6797 57.1652C30.9291 55.3615 29.0644 52.4106 28.6379 49.129L27.1355 37.5717C26.9364 36.0419 25.6233 34.8883 24.0806 34.8883C22.3818 34.8883 21 36.27 21 37.9688V42.1153C21 42.6547 21.4372 43.0919 21.9766 43.0919C22.5161 43.0919 22.9532 42.6547 22.9532 42.1153V37.9688C22.9532 37.3474 23.4591 36.8415 24.0806 36.8415C24.6452 36.8415 25.1255 37.2638 25.1983 37.8235L26.7006 49.3808C27.2405 53.5318 29.7431 57.2308 33.3951 59.2756C34.0478 59.6414 34.8268 59.5514 35.3792 59.0467C35.9316 58.542 36.0915 57.774 35.7859 57.0912L33.7457 52.5262C33.4149 51.7865 33.6598 50.9163 34.3278 50.4578C35.0435 49.9672 36.032 50.1098 36.5794 50.7824C39.7546 54.6847 41.6006 59.4015 41.9173 64.4227L42.3377 71.0847C42.3705 71.602 42.8004 71.9999 43.3116 71.9999C43.3322 71.9999 43.3532 71.9991 43.3742 71.998C43.9125 71.9637 44.3214 71.4998 44.2875 70.9615L43.8667 64.2998Z" fill="white"/>
<path d="M21.9766 46.705C22.2334 46.705 22.4855 46.6016 22.6671 46.4196C22.8487 46.2373 22.9532 45.9863 22.9532 45.7291C22.9532 45.4716 22.8487 45.2194 22.6671 45.0379C22.4855 44.8563 22.2334 44.7517 21.9766 44.7517C21.7199 44.7517 21.4677 44.8563 21.2861 45.0379C21.1045 45.2194 21 45.4716 21 45.7291C21 45.9863 21.1045 46.238 21.2861 46.4196C21.4677 46.6016 21.7199 46.705 21.9766 46.705Z" fill="white"/>
<path d="M26.5572 62.9585C24.2332 60.1446 22.9532 56.5845 22.9532 52.9344V49.1958C22.9532 48.6563 22.5161 48.2191 21.9766 48.2191C21.4372 48.2191 21 48.6563 21 49.1958V52.9344C21 57.0374 22.4386 61.0392 25.0515 64.2026L31.1981 71.6451C31.3911 71.879 31.6704 71.9999 31.9515 71.9999C32.1705 71.9999 32.391 71.9266 32.573 71.7763C32.9888 71.4326 33.0475 70.8173 32.7042 70.4014L26.5572 62.9585Z" fill="white"/>
<path d="M67.9224 34.8883C66.3797 34.8883 65.0666 36.0419 64.8674 37.5717L63.3651 49.129C62.9386 52.4106 61.0742 55.3615 58.3237 57.1652L60.0408 53.3232C60.7561 51.7224 60.2262 49.8401 58.7803 48.8475C57.2334 47.7854 55.0932 48.0937 53.9087 49.5494C50.4748 53.7695 48.4789 58.8704 48.1363 64.2998L47.7159 70.9619C47.6815 71.5001 48.0905 71.964 48.6288 71.998C48.6498 71.9991 48.6708 71.9999 48.6914 71.9999C49.2026 71.9999 49.6325 71.6024 49.6653 71.0847L50.0857 64.4231C50.4027 59.4019 52.2484 54.6851 55.4239 50.7824C55.971 50.1095 56.9598 49.9672 57.6751 50.4578C58.3431 50.9167 58.5884 51.7865 58.2577 52.5262L56.2171 57.0912C55.9119 57.7744 56.0713 58.542 56.6237 59.0467C57.1761 59.5514 57.9551 59.6414 58.6083 59.276C62.2603 57.2308 64.7625 53.5318 65.3023 49.3812L66.8046 37.8235C66.8775 37.2638 67.3582 36.8415 67.9224 36.8415C68.5442 36.8415 69.0497 37.3474 69.0497 37.9688V52.9348C69.0497 56.5845 67.7698 60.1446 65.4458 62.9589L59.2991 70.4014C58.9554 70.8173 59.0142 71.433 59.43 71.7763C59.8462 72.1201 60.4616 72.0609 60.8049 71.6451L66.9515 64.2026C69.5644 61.0392 71.003 57.0374 71.003 52.9344V37.9688C71.003 36.27 69.6212 34.8883 67.9224 34.8883Z" fill="white"/>
<path d="M57.721 36.1086C57.4643 36.1086 57.2121 36.2132 57.0305 36.3948C56.8489 36.5764 56.7444 36.8285 56.7444 37.086C56.7444 37.3432 56.8489 37.5942 57.0305 37.7765C57.2121 37.9585 57.4643 38.0619 57.721 38.0619C57.9778 38.0619 58.2299 37.9585 58.4115 37.7765C58.5931 37.5942 58.6976 37.3432 58.6976 37.086C58.6976 36.8285 58.5931 36.5775 58.4115 36.3948C58.2299 36.2132 57.9778 36.1086 57.721 36.1086Z" fill="white"/>
<path d="M58.6973 43.275V40.5038C58.6973 39.9644 58.2602 39.5272 57.7207 39.5272C57.1813 39.5272 56.7441 39.9644 56.7441 40.5038V42.7115L46.9779 48.35V37.0727L56.7441 31.4342V33.521C56.7441 34.0604 57.1813 34.4976 57.7207 34.4976C58.2602 34.4976 58.6973 34.0604 58.6973 33.521V29.7427C58.6973 29.3936 58.5112 29.0713 58.209 28.8969L46.4896 22.1308C46.1874 21.9564 45.8151 21.9564 45.5129 22.1308L33.7935 28.8969C33.4913 29.0713 33.3052 29.3936 33.3052 29.7427V43.275C33.3052 43.6241 33.4913 43.9464 33.7935 44.1208L45.5129 50.8873C45.664 50.9743 45.8326 51.0182 46.0013 51.0182C46.1699 51.0182 46.3385 50.9743 46.4896 50.8873L58.209 44.1208C58.5112 43.9464 58.6973 43.6241 58.6973 43.275ZM46.0013 24.1042L55.7675 29.7427L46.0013 35.3811L36.235 29.7427L46.0013 24.1042ZM35.2584 31.4342L45.0246 37.0727V48.35L35.2584 42.7115V31.4342Z" fill="white"/>
<defs>
<linearGradient id="paint0_linear_216_16" x1="93" y1="78.3158" x2="13.6353" y2="31.8158" gradientUnits="userSpaceOnUse">
<stop stop-color="#00D9D0"/>
<stop offset="1" stop-color="#15EEE5"/>
</linearGradient>
</defs>
</svg>
