<svg width="93" height="93" viewBox="0 0 93 93" fill="none" xmlns="http://www.w3.org/2000/svg">
<circle cx="46.5" cy="46.5" r="46.5" fill="url(#paint0_linear_216_15)"/>
<path d="M47 51.1668C44.1283 51.1668 41.7917 48.8303 41.7917 45.9582V43.875C41.7917 41.0033 44.1283 38.6668 47 38.6668C49.8717 38.6668 52.2082 41.0033 52.2082 43.875V45.9582C52.2082 48.8303 49.8717 51.1668 47 51.1668ZM47 40.75C45.2769 40.75 43.875 42.1519 43.875 43.875V45.9582C43.875 47.6813 45.2769 49.0832 47 49.0832C48.7231 49.0832 50.125 47.6813 50.125 45.9582V43.875C50.125 42.1519 48.7231 40.75 47 40.75Z" fill="white"/>
<path d="M39.7082 57.4168H37.625V54.8491C37.625 54.1491 37.9718 53.501 38.5543 53.1146L43.875 49.5677V49.0832H45.9582V50.125C45.9582 50.4729 45.7843 50.7979 45.4947 50.9917L39.7082 54.8491V57.4168Z" fill="white"/>
<path d="M56.375 57.4168H54.2917V54.8491L48.5052 50.9917C48.2157 50.7979 48.0417 50.4729 48.0417 50.125V49.0832H50.125V49.5677L55.4468 53.1157C56.0282 53.5033 56.375 54.151 56.375 54.8491V57.4168Z" fill="white"/>
<path d="M47 72C38.822 72 32.4167 61.0186 32.4167 47C32.4167 32.9814 38.822 22 47 22C48.7822 22 50.3165 22.3864 51.6886 23.1822L50.6449 24.9842C49.5978 24.3781 48.4061 24.0832 47 24.0832C40.1072 24.0832 34.5 34.3634 34.5 47C34.5 59.6366 40.1072 69.9168 47 69.9168C53.8927 69.9168 59.5 59.6366 59.5 47C59.5 39.3283 56.9697 33.5791 55.4625 30.8345L57.2874 29.8312C60.0573 34.8719 61.5832 40.9686 61.5832 47C61.5832 61.0186 55.1779 72 47 72Z" fill="white"/>
<path d="M57.4168 64.7082C51.578 64.7082 45.4543 62.9519 39.7082 59.6312C27.5675 52.6228 21.2592 41.5843 25.3478 34.5C27.3249 31.0729 31.425 29.1926 36.904 29.1926C36.978 29.1926 37.052 29.1926 37.126 29.1937C42.5002 29.2437 48.5957 31.0813 54.2918 34.3688C63.7835 39.8459 69.9168 47.6668 69.9168 54.2918C69.9168 55.5884 69.7459 56.7759 69.4071 57.8208C69.2313 58.3685 68.6469 58.6688 68.0957 58.4918C67.549 58.3148 67.2488 57.7281 67.425 57.1803C67.6959 56.3426 67.8332 55.371 67.8332 54.2918C67.8332 48.4885 61.9731 41.2062 53.25 36.1727C47.8606 33.0615 42.1271 31.3227 37.1062 31.2769C32.273 31.2251 28.7646 32.7479 27.1521 35.5418C23.7063 41.5125 29.8064 51.5093 40.75 57.8272C46.1032 60.921 52.022 62.625 57.4168 62.625C59.9532 62.625 61.8033 62.3229 63.2384 61.6759C63.7614 61.4356 64.379 61.6728 64.6155 62.197C64.852 62.7207 64.6197 63.3387 64.0948 63.5741C62.3812 64.3481 60.2595 64.7082 57.4168 64.7082Z" fill="white"/>
<path d="M36.9178 64.7918C32.8574 64.7918 29.3731 63.7446 27.0541 61.6095C26.6315 61.2197 26.6044 60.5605 26.9939 60.1374C27.3822 59.7148 28.0406 59.6877 28.4656 60.0772C33.0554 64.3042 43.7095 63.3365 53.2489 57.8261C64.1936 51.5094 70.2937 41.5126 66.8479 35.5418C65.2343 32.7468 61.6794 31.2377 56.8938 31.277C51.8729 31.3228 46.1395 33.0626 40.75 36.1728C32.027 41.2063 26.1668 48.4885 26.1668 54.2918C26.1668 54.8678 25.6999 55.3332 25.125 55.3332C24.5502 55.3332 24.0833 54.8678 24.0833 54.2918C24.0833 47.6668 30.2165 39.8459 39.7083 34.3688C45.4044 31.0813 51.4999 29.2437 56.874 29.1938C62.498 29.1457 66.648 31.0283 68.6523 34.5C72.7409 41.5843 66.4325 52.6229 54.2918 59.6312C48.3886 63.0397 42.171 64.7918 36.9178 64.7918Z" fill="white"/>
<path d="M52.2081 28.25C50.4854 28.25 49.0831 26.8481 49.0831 25.125C49.0831 23.4019 50.4854 22 52.2081 22C53.9312 22 55.3331 23.4019 55.3331 25.125C55.3331 26.8481 53.9312 28.25 52.2081 28.25ZM52.2081 24.0832C51.6333 24.0832 51.1667 24.5509 51.1667 25.125C51.1667 25.6991 51.6333 26.1668 52.2081 26.1668C52.7834 26.1668 53.2499 25.6991 53.2499 25.125C53.2499 24.5509 52.7834 24.0832 52.2081 24.0832Z" fill="white"/>
<path d="M26.1667 62.625C24.4436 62.625 23.0417 61.2231 23.0417 59.5C23.0417 57.7769 24.4436 56.375 26.1667 56.375C27.8895 56.375 29.2917 57.7769 29.2917 59.5C29.2917 61.2231 27.8895 62.625 26.1667 62.625ZM26.1667 58.4582C25.5926 58.4582 25.125 58.9251 25.125 59.5C25.125 60.0749 25.5926 60.5418 26.1667 60.5418C26.7405 60.5418 27.2082 60.0749 27.2082 59.5C27.2082 58.9251 26.7405 58.4582 26.1667 58.4582Z" fill="white"/>
<path d="M67.8331 62.625C66.1104 62.625 64.7081 61.2231 64.7081 59.5C64.7081 57.7769 66.1104 56.375 67.8331 56.375C69.5562 56.375 70.9581 57.7769 70.9581 59.5C70.9581 61.2231 69.5562 62.625 67.8331 62.625ZM67.8331 58.4582C67.2583 58.4582 66.7917 58.9251 66.7917 59.5C66.7917 60.0749 67.2583 60.5418 67.8331 60.5418C68.4084 60.5418 68.8749 60.0749 68.8749 59.5C68.8749 58.9251 68.4084 58.4582 67.8331 58.4582Z" fill="white"/>
<path d="M69.9167 45.9582H72V48.0418H69.9167V45.9582Z" fill="white"/>
<path d="M58.4581 66.7918H60.5417V68.875H58.4581V66.7918Z" fill="white"/>
<path d="M33.4583 66.7918H35.5418V68.875H33.4583V66.7918Z" fill="white"/>
<path d="M58.4581 25.125H60.5417V27.2082H58.4581V25.125Z" fill="white"/>
<path d="M33.4583 25.125H35.5418V27.2082H33.4583V25.125Z" fill="white"/>
<path d="M22 45.9582H24.0832V48.0418H22V45.9582Z" fill="white"/>
<defs>
<linearGradient id="paint0_linear_216_15" x1="93" y1="78.3158" x2="13.6353" y2="31.8158" gradientUnits="userSpaceOnUse">
<stop stop-color="#FF6600"/>
<stop offset="1" stop-color="#F8893F"/>
</linearGradient>
</defs>
</svg>
