<svg width="93" height="93" viewBox="0 0 93 93" fill="none" xmlns="http://www.w3.org/2000/svg">
<circle cx="46.5" cy="46.5" r="46.5" fill="url(#paint0_linear_216_13)"/>
<path d="M71.9902 44.9785C70.3203 31.6777 61.3066 23.084 47.7324 22L46.2774 22.0195C43.9531 22.4102 41.0528 23.123 39.2363 25.1836C38.1035 26.4629 37.1563 28.709 37.0196 30.3984C36.5117 36.7559 41.1016 39.1582 44.793 41.0918C44.793 41.0918 49.6758 43.6406 52.0977 44.8906L56.3457 47.0976C58.3281 48.123 59.8809 49.0703 61.0527 50.3398C63.582 53.084 64.6367 56.3262 64.3926 60.5449C64.3535 61.1894 64.7148 61.7851 65.3008 62.0586C65.5156 62.1562 65.7402 62.2051 65.9551 62.2051C66.3457 62.2051 66.7461 62.0488 67.0391 61.7656C67.7129 61.1113 68.3574 60.2226 68.9629 59.1094C70.5742 56.1797 71.5801 52.8398 71.8828 49.4219C71.9609 49.2461 72 49.041 72 48.8359L71.9902 44.9785ZM68.875 48.5234C68.8359 48.6504 68.8066 48.7773 68.7969 48.9043C68.582 51.6094 67.9082 53.875 67.1856 55.623C66.5996 52.8203 65.3301 50.3887 63.3477 48.2402C61.7754 46.5508 59.7539 45.3691 57.791 44.3437L53.5332 42.1269C51.1211 40.8769 48.7188 39.6269 46.3555 38.3867L46.2383 38.3281C42.2246 36.2285 39.8125 34.666 40.1348 30.6523C40.2031 29.7344 40.8379 28.0937 41.5801 27.2539C42.7617 25.9062 45.125 25.3887 46.541 25.125H47.6055C59.4609 26.0723 67.4199 33.6406 68.875 45.1738V48.5234Z" fill="white"/>
<path d="M59.3144 57.205C58.4062 53.914 55.5058 51.9804 52.498 50.3789C50.4082 49.2656 48.3672 48.2207 46.3262 47.1758C44.4023 46.1894 42.4785 45.1933 40.4961 44.1484L40.2226 44.0019C38.3769 43.0254 36.6289 42.0976 35.3887 40.8574C33.7969 39.2656 32.459 36.6289 32.0684 34.2949C31.9121 33.3281 31.9121 31.4922 31.9121 30.8867C31.9121 30.2812 31.5508 29.7246 31.0039 29.4707C30.4473 29.207 29.793 29.3047 29.334 29.6953C27.1562 31.5312 25.1543 34.5293 23.8457 37.9179C22.7324 40.7793 22.127 43.4258 22 46.082V48.0937C22.3418 54.2754 24.627 59.5976 29.0019 64.3535C32.918 68.6113 38.4453 71.2578 45.164 72L48.5234 71.9804C51.3945 71.5312 53.9433 70.2031 55.916 68.123C57.0879 66.9023 60.7695 62.4785 59.3144 57.205ZM53.6504 65.9746C52.1562 67.5468 50.2129 68.5527 48.2793 68.875L45.3398 68.8847C39.5586 68.2402 34.7051 65.9453 31.3066 62.2441C27.4395 58.0351 25.418 53.3476 25.125 48.0058V46.1601C25.2422 43.8945 25.7598 41.6289 26.7656 39.0508C27.3711 37.4883 28.1328 36.0332 28.9824 34.7832C28.9824 34.7929 28.9824 34.8027 28.9824 34.8125C29.4805 37.791 31.1211 41.0332 33.1719 43.0742C34.7441 44.6465 36.7851 45.7304 38.7578 46.7754L39.0312 46.9218C41.0234 47.9668 42.957 48.9726 44.9004 49.959C46.9316 50.9941 48.9531 52.039 51.0234 53.1425C53.416 54.4121 55.7109 55.8867 56.2969 58.0351C57.3125 61.7461 54.5293 65.0468 53.6504 65.9746Z" fill="white"/>
<defs>
<linearGradient id="paint0_linear_216_13" x1="93" y1="78.3158" x2="13.6353" y2="31.8158" gradientUnits="userSpaceOnUse">
<stop stop-color="#0081FF"/>
<stop offset="1" stop-color="#4EA7FF"/>
</linearGradient>
</defs>
</svg>
