<svg width="23" height="23" viewBox="0 0 23 23" fill="none" xmlns="http://www.w3.org/2000/svg">
<circle cx="11.5" cy="11.5" r="11.5" fill="url(#paint0_linear_224_1185)"/>
<path d="M12.1327 7.63483C12.1431 7.59596 12.161 7.55951 12.1855 7.52757C12.2099 7.49562 12.2405 7.46882 12.2753 7.44868C12.3101 7.42854 12.3486 7.41546 12.3885 7.4102C12.4283 7.40493 12.4689 7.40758 12.5077 7.41799C13.2471 7.61086 13.9217 7.99738 14.4621 8.53772C15.0024 9.07805 15.3889 9.75268 15.5818 10.4921C15.5922 10.531 15.5948 10.5715 15.5896 10.6114C15.5843 10.6513 15.5712 10.6897 15.5511 10.7245C15.5309 10.7594 15.5041 10.7899 15.4722 10.8144C15.4402 10.8388 15.4038 10.8567 15.3649 10.8671C15.3391 10.874 15.3125 10.8774 15.2858 10.8773C15.2184 10.8773 15.1528 10.8551 15.0993 10.8141C15.0458 10.773 15.0073 10.7154 14.9899 10.6503C14.8243 10.0151 14.4924 9.43564 14.0283 8.97152C13.5642 8.5074 12.9847 8.17544 12.3496 8.00985C12.3107 7.99948 12.2743 7.98156 12.2423 7.9571C12.2104 7.93264 12.1836 7.90212 12.1634 7.86729C12.1433 7.83246 12.1302 7.794 12.1249 7.75412C12.1197 7.71423 12.1223 7.6737 12.1327 7.63483ZM11.9414 9.64257C12.6838 9.84053 13.1593 10.3161 13.3572 11.0584C13.3747 11.1236 13.4131 11.1812 13.4666 11.2222C13.5201 11.2633 13.5857 11.2855 13.6532 11.2855C13.6799 11.2856 13.7064 11.2822 13.7322 11.2753C13.7711 11.2649 13.8076 11.247 13.8395 11.2225C13.8715 11.1981 13.8983 11.1676 13.9184 11.1327C13.9385 11.0979 13.9516 11.0594 13.9569 11.0195C13.9621 10.9797 13.9595 10.9391 13.9491 10.9003C13.694 9.94564 13.0542 9.30582 12.0996 9.05071C12.0607 9.04032 12.0202 9.03769 11.9803 9.04297C11.9404 9.04824 11.902 9.06132 11.8672 9.08146C11.7968 9.12213 11.7455 9.18907 11.7246 9.26755C11.7036 9.34604 11.7147 9.42964 11.7553 9.49997C11.796 9.5703 11.8629 9.62159 11.9414 9.64257ZM15.9945 14.5917C15.9071 15.2587 15.5798 15.871 15.0738 16.3143C14.5678 16.7575 13.9177 17.0012 13.245 17C9.25005 17 6.00001 13.7499 6.00001 9.75481C5.99872 9.08236 6.24226 8.43243 6.68515 7.92644C7.12804 7.42044 7.73998 7.09298 8.40667 7.00522C8.56014 6.98657 8.71552 7.01821 8.84947 7.0954C8.98342 7.17259 9.08871 7.29116 9.14953 7.4333L10.2261 9.83645C10.2736 9.94524 10.2933 10.0642 10.2833 10.1825C10.2733 10.3008 10.234 10.4147 10.1689 10.514C10.1624 10.5241 10.1552 10.5338 10.1475 10.5431L9.07249 11.8217C9.06597 11.835 9.06257 11.8496 9.06257 11.8643C9.06257 11.8791 9.06597 11.8937 9.07249 11.9069C9.46331 12.707 10.3021 13.5397 11.1133 13.93C11.1269 13.9362 11.1417 13.9391 11.1566 13.9386C11.1714 13.938 11.186 13.934 11.1991 13.9269L12.4588 12.8554C12.4678 12.8476 12.4773 12.8405 12.4873 12.834C12.5862 12.7681 12.6999 12.7279 12.8182 12.717C12.9365 12.7062 13.0557 12.725 13.1649 12.7718L15.5751 13.8519C15.7154 13.9141 15.8319 14.0197 15.9074 14.1532C15.9829 14.2868 16.0135 14.441 15.9945 14.5933V14.5917ZM15.3879 14.5162C15.3896 14.4949 15.3846 14.4736 15.3735 14.4552C15.3624 14.4369 15.3458 14.4226 15.3261 14.4142L12.9154 13.334C12.9022 13.329 12.8881 13.3268 12.874 13.3277C12.8599 13.3285 12.8462 13.3325 12.8338 13.3391L11.5746 14.4106C11.5654 14.4183 11.5557 14.4254 11.546 14.432C11.4433 14.5005 11.3246 14.5412 11.2014 14.5502C11.0783 14.5591 10.955 14.536 10.8434 14.4831C9.90669 14.0305 8.973 13.1055 8.52045 12.1774C8.46722 12.0665 8.44352 11.9437 8.45166 11.821C8.45979 11.6983 8.49948 11.5797 8.56687 11.4768C8.57344 11.4666 8.58078 11.4569 8.58881 11.4477L9.66332 10.1691C9.66946 10.1558 9.67264 10.1412 9.67264 10.1265C9.67264 10.1118 9.66946 10.0973 9.66332 10.0839L8.58881 7.67871C8.58172 7.65941 8.56896 7.6427 8.55221 7.63077C8.53546 7.61885 8.5155 7.61226 8.49493 7.61187H8.4832C7.96429 7.6809 7.48824 7.93645 7.14395 8.33079C6.79965 8.72514 6.61066 9.23132 6.61226 9.75481C6.61226 13.4121 9.58781 16.3877 13.245 16.3877C13.7686 16.3893 14.2748 16.2002 14.6691 15.8558C15.0635 15.5114 15.319 15.0352 15.3879 14.5162Z" fill="white"/>
<defs>
<linearGradient id="paint0_linear_224_1185" x1="11.5" y1="6.70552e-07" x2="34" y2="23" gradientUnits="userSpaceOnUse">
<stop stop-color="#0081FF"/>
<stop offset="1" stop-color="#00FFFF"/>
</linearGradient>
</defs>
</svg>
