<svg width="23" height="23" viewBox="0 0 23 23" fill="none" xmlns="http://www.w3.org/2000/svg">
<circle cx="11.5" cy="11.5" r="11.5" fill="url(#paint0_linear_224_1186)"/>
<path d="M16.5999 11.4999C16.5999 12.8525 16.0626 14.1497 15.1061 15.1061C14.1497 16.0626 12.8525 16.5999 11.4999 16.5999C10.1473 16.5999 8.85009 16.0626 7.89366 15.1061C6.93722 14.1497 6.3999 12.8525 6.3999 11.4999M16.5999 11.4999C16.5999 10.1473 16.0626 8.85009 15.1061 7.89366C14.1497 6.93722 12.8525 6.3999 11.4999 6.3999C10.1473 6.3999 8.85009 6.93722 7.89366 7.89366C6.93722 8.85009 6.3999 10.1473 6.3999 11.4999M16.5999 11.4999H6.3999" stroke="white" stroke-width="0.5" stroke-linecap="round" stroke-linejoin="round"/>
<path d="M13.4614 11.4999C13.3651 13.3649 12.6781 15.151 11.4999 16.5999C10.3216 15.151 9.63468 13.3649 9.53833 11.4999C9.63468 9.63488 10.3216 7.84881 11.4999 6.3999C12.6781 7.84881 13.3651 9.63488 13.4614 11.4999Z" stroke="white" stroke-width="0.5" stroke-linecap="round" stroke-linejoin="round"/>
<defs>
<linearGradient id="paint0_linear_224_1186" x1="11.5" y1="6.70552e-07" x2="34" y2="23" gradientUnits="userSpaceOnUse">
<stop stop-color="#0081FF"/>
<stop offset="1" stop-color="#00FFFF"/>
</linearGradient>
</defs>
</svg>
